Coordinates
version=1
nRows=16
nColumns=40
inDegrees=yes

Units are S.I. units (second, meters, Newtons, ...)
If the header above contains a line with 'inDegrees', this indicates whether rotational values are in degrees (yes) or radians (no).

endheader
time	pelvis_tilt	pelvis_list	pelvis_rotation	pelvis_tx	pelvis_ty	pelvis_tz	hip_flexion_r	hip_adduction_r	hip_rotation_r	knee_angle_r	knee_angle_r_beta	ankle_angle_r	subtalar_angle_r	mtp_angle_r	hip_flexion_l	hip_adduction_l	hip_rotation_l	knee_angle_l	knee_angle_l_beta	ankle_angle_l	subtalar_angle_l	mtp_angle_l	lumbar_extension	lumbar_bending	lumbar_rotation	arm_flex_r	arm_add_r	arm_rot_r	elbow_flex_r	pro_sup_r	wrist_flex_r	wrist_dev_r	arm_flex_l	arm_add_l	arm_rot_l	elbow_flex_l	pro_sup_l	wrist_flex_l	wrist_dev_l
      0.15000000	     -2.40893822	     10.06498875	    -89.92826159	      0.19501616	      0.88460013	     -0.79824253	    -14.36294585	      6.89239869	      0.07319710	     -9.34389666	     -0.16308176	     12.76556381	      0.00000000	      0.00000000	     44.94701296	     -4.00857726	     -2.42990693	     18.66753823	      0.32581001	      3.48592213	      0.00000000	      0.00000000	     -3.99988300	      3.69596144	     -2.77652529	      0.00000000	      0.00000000	      0.00000000	      0.00000000	      0.00000000	      0.00000000	      0.00000000	      0.00000000	      0.00000000	      0.00000000	      0.00000000	      0.00000000	      0.00000000	      0.00000000
      0.16000000	     -2.75129789	     10.23476675	    -89.93066278	      0.19557528	      0.87945658	     -0.78099626	    -15.50874361	      7.18921806	      0.17643433	     -9.38074682	     -0.16372492	     13.21353617	      0.00000000	      0.00000000	     45.21866351	     -3.90397969	     -1.16849996	     16.50721717	      0.28810529	      3.71395935	      0.00000000	      0.00000000	     -3.76135561	      4.07742627	     -2.74305583	      0.00000000	      0.00000000	      0.00000000	      0.00000000	      0.00000000	      0.00000000	      0.00000000	      0.00000000	      0.00000000	      0.00000000	      0.00000000	      0.00000000	      0.00000000	      0.00000000
      0.17000000	     -2.90374502	     10.33350413	    -89.93224853	      0.19625388	      0.87464443	     -0.76340079	    -16.65312474	      7.24701195	      0.42857900	     -9.26159145	     -0.16164526	     13.59764361	      0.00000000	      0.00000000	     45.33882325	     -3.61174806	      0.24533107	     14.94162194	      0.26078050	      3.85595949	      0.00000000	      0.00000000	     -3.55844182	      4.21770719	     -2.79272497	      0.00000000	      0.00000000	      0.00000000	      0.00000000	      0.00000000	      0.00000000	      0.00000000	      0.00000000	      0.00000000	      0.00000000	      0.00000000	      0.00000000	      0.00000000	      0.00000000
      0.18000000	     -2.73015788	     10.19793114	    -89.93394825	      0.19717094	      0.87056178	     -0.74538153	    -17.98733500	      6.92431244	      0.77552646	     -9.00669918	     -0.15719656	     14.10475862	      0.00000000	      0.00000000	     45.10604808	     -3.00049515	      1.64188975	     13.95856338	      0.24362289	      3.68312547	      0.00000000	      0.00000000	     -3.62267614	      3.96294725	     -2.92225054	      0.00000000	      0.00000000	      0.00000000	      0.00000000	      0.00000000	      0.00000000	      0.00000000	      0.00000000	      0.00000000	      0.00000000	      0.00000000	      0.00000000	      0.00000000	      0.00000000
      0.19000000	     -2.68462627	     10.30146572	    -89.93411005	      0.19805707	      0.86653348	     -0.72742441	    -18.81726810	      6.70068739	      1.23894119	     -8.33361865	     -0.14544908	     14.33935283	      0.00000000	      0.00000000	     45.23006204	     -2.50513962	      3.13769188	     13.79820196	      0.24082406	      3.39878358	      0.00000000	      0.00000000	     -3.39872639	      3.85523969	     -3.00252087	      0.00000000	      0.00000000	      0.00000000	      0.00000000	      0.00000000	      0.00000000	      0.00000000	      0.00000000	      0.00000000	      0.00000000	      0.00000000	      0.00000000	      0.00000000	      0.00000000
      0.20000000	     -2.54169639	     10.34507686	    -89.93444088	      0.19902892	      0.86316296	     -0.70928842	    -19.48593895	      6.35136919	      1.68995595	     -7.24038150	     -0.12636850	     14.61803460	      0.00000000	      0.00000000	     45.29241448	     -1.91371159	      4.41729715	     14.25595714	      0.24881339	      2.65603020	      0.00000000	      0.00000000	     -3.23503071	      3.63032741	     -3.08848450	      0.00000000	      0.00000000	      0.00000000	      0.00000000	      0.00000000	      0.00000000	      0.00000000	      0.00000000	      0.00000000	      0.00000000	      0.00000000	      0.00000000	      0.00000000	      0.00000000
      0.21000000	     -2.38589793	     10.43452080	    -89.93432754	      0.19996573	      0.86032479	     -0.69099800	    -19.86687106	      5.97834892	      1.98327415	     -5.80005816	     -0.10123011	     14.28700317	      0.00000000	      0.00000000	     45.49396128	     -1.32712398	      5.31329111	     15.41614480	      0.26906248	      1.83213908	      0.00000000	      0.00000000	     -3.00897102	      3.35529223	     -3.15020865	      0.00000000	      0.00000000	      0.00000000	      0.00000000	      0.00000000	      0.00000000	      0.00000000	      0.00000000	      0.00000000	      0.00000000	      0.00000000	      0.00000000	      0.00000000	      0.00000000
      0.22000000	     -2.22373494	     10.35455796	    -89.93385481	      0.20096140	      0.85841870	     -0.67247873	    -20.24564574	      5.57276117	      2.51980902	     -3.99364216	     -0.06970220	     14.47520668	      0.00000000	      0.00000000	     45.42268453	     -0.73244765	      6.12949630	     16.74906413	      0.29232632	     -0.18657287	      0.00000000	      0.00000000	     -2.96138596	      3.08597188	     -3.20334267	      0.00000000	      0.00000000	      0.00000000	      0.00000000	      0.00000000	      0.00000000	      0.00000000	      0.00000000	      0.00000000	      0.00000000	      0.00000000	      0.00000000	      0.00000000	      0.00000000
      0.23000000	     -2.11960825	     10.24650153	    -89.93257778	      0.20178912	      0.85725095	     -0.65368428	    -20.41983745	      5.22044225	      2.88614861	     -1.94069944	     -0.03387159	     13.71712149	      0.00000000	      0.00000000	     45.36121643	     -0.24696910	      6.62286619	     18.54808153	      0.32372509	     -1.77677262	      0.00000000	      0.00000000	     -2.92965610	      2.83976010	     -3.24200693	      0.00000000	      0.00000000	      0.00000000	      0.00000000	      0.00000000	      0.00000000	      0.00000000	      0.00000000	      0.00000000	      0.00000000	      0.00000000	      0.00000000	      0.00000000	      0.00000000
      0.24000000	     -2.10074007	     10.11618542	    -89.93125144	      0.20252120	      0.85689263	     -0.63471367	    -20.31327116	      4.94551413	      3.17992690	      0.53166424	      0.00927929	     12.50898301	      0.00000000	      0.00000000	     45.21636594	      0.10193558	      6.92947062	     20.43821516	      0.35671415	     -3.59406299	      0.00000000	      0.00000000	     -2.89934524	      2.68949019	     -3.21604698	      0.00000000	      0.00000000	      0.00000000	      0.00000000	      0.00000000	      0.00000000	      0.00000000	      0.00000000	      0.00000000	      0.00000000	      0.00000000	      0.00000000	      0.00000000	      0.00000000
      0.25000000	     -2.17861239	      9.77120425	    -89.92913984	      0.20308321	      0.85762070	     -0.61549590	    -20.11551351	      4.76207209	      3.32471955	      3.39070969	      0.05917905	     10.72116812	      0.00000000	      0.00000000	     44.78053566	      0.28370634	      7.10776225	     22.47950784	      0.39234143	     -4.68193124	     -0.00000000	     -0.00000000	     -3.11076509	      2.62764165	     -3.17993592	      0.00000000	     -0.00000000	     -0.00000000	      0.00000000	      0.00000000	     -0.00000000	      0.00000000	      0.00000000	     -0.00000000	      0.00000000	      0.00000000	      0.00000000	     -0.00000000	     -0.00000000
      0.26000000	     -2.35286146	      9.37014902	    -89.92697208	      0.20348205	      0.85923792	     -0.59620735	    -19.53636412	      4.65255584	      3.12489759	      6.82297910	      0.11908345	      8.30669155	      0.00000000	      0.00000000	     44.17119182	      0.30063083	      7.22257812	     24.45757055	      0.42686513	     -5.28915257	      0.00000000	      0.00000000	     -3.38285698	      2.66692664	     -3.09452900	      0.00000000	      0.00000000	      0.00000000	      0.00000000	      0.00000000	      0.00000000	      0.00000000	      0.00000000	      0.00000000	      0.00000000	      0.00000000	      0.00000000	      0.00000000	      0.00000000
      0.27000000	     -2.56405763	      9.06450774	    -89.92317325	      0.20387489	      0.86142761	     -0.57698936	    -18.31041115	      4.50681547	      2.24198854	     10.96035534	      0.19129429	      5.10899395	      0.00000000	      0.00000000	     43.52956028	      0.24793074	      7.37704229	     26.35108712	      0.45991323	     -5.06576875	      0.00000000	      0.00000000	     -3.53151118	      2.73057082	     -3.01902645	      0.00000000	      0.00000000	      0.00000000	      0.00000000	      0.00000000	      0.00000000	      0.00000000	      0.00000000	      0.00000000	      0.00000000	      0.00000000	      0.00000000	      0.00000000	      0.00000000
      0.28000000	     -2.73380056	      8.65465776	    -89.91913337	      0.20433026	      0.86439390	     -0.55792235	    -16.74940632	      4.20998405	      1.02628939	     15.67548793	      0.27358888	      1.57663066	     -0.00000000	     -0.00000000	     42.59791759	      0.18759940	      7.45721288	     28.01997596	      0.48904084	     -4.16313490	     -0.00000000	      0.00000000	     -3.82357362	      2.76780337	     -2.93863858	      0.00000000	      0.00000000	     -0.00000000	      0.00000000	      0.00000000	      0.00000000	     -0.00000000	      0.00000000	     -0.00000000	     -0.00000000	      0.00000000	      0.00000000	      0.00000000	     -0.00000000
      0.29000000	     -2.80406988	      8.27547083	    -89.91548285	      0.20511255	      0.86773740	     -0.53921899	    -14.73675230	      3.64133166	     -0.53424774	     20.90437486	      0.36485017	     -2.16860052	      0.00000000	      0.00000000	     41.53244241	      0.23421707	      7.54682096	     29.44850033	      0.51397329	     -2.76470002	      0.00000000	      0.00000000	     -4.12106690	      2.75461720	     -2.88990708	     -0.00000000	      0.00000000	      0.00000000	      0.00000000	      0.00000000	      0.00000000	      0.00000000	      0.00000000	      0.00000000	      0.00000000	      0.00000000	      0.00000000	     -0.00000000	     -0.00000000
      0.30000000	     -2.67764009	      7.96867120	    -89.91157765	      0.20612834	      0.87134431	     -0.52088475	    -12.35909859	      2.71966318	     -2.16955207	     26.45673648	      0.46175716	     -5.90532009	      0.00000000	      0.00000000	     40.31707719	      0.46423181	      7.54905692	     30.48014604	      0.53197890	     -1.07991204	      0.00000000	      0.00000000	     -4.35956982	      2.54380309	     -2.85521662	      0.00000000	      0.00000000	      0.00000000	      0.00000000	      0.00000000	      0.00000000	      0.00000000	      0.00000000	      0.00000000	      0.00000000	      0.00000000	      0.00000000	      0.00000000	      0.00000000
